<svg width="19" height="23" viewBox="0 0 19 23" fill="none" xmlns="http://www.w3.org/2000/svg">
<path d="M15.7068 12.1249C15.6963 10.3267 16.511 8.97139 18.1563 7.97207C17.2361 6.65371 15.8439 5.92861 14.0088 5.78887C12.2712 5.65176 10.3701 6.80137 9.67399 6.80137C8.93835 6.80137 7.25612 5.83633 5.93249 5.83633C3.20085 5.87852 0.297821 8.01426 0.297821 12.3596C0.297821 13.6437 0.532489 14.9699 1.00183 16.3357C1.62936 18.134 3.89167 22.5399 6.25153 22.4688C7.48552 22.4397 8.35827 21.5934 9.96403 21.5934C11.5223 21.5934 12.3292 22.4688 13.7055 22.4688C16.0865 22.4345 18.1326 18.4293 18.7285 16.6258C15.5354 15.1202 15.7068 12.2172 15.7068 12.1249ZM12.9356 4.08291C14.2724 2.49561 14.1511 1.05068 14.1116 0.53125C12.9303 0.599805 11.5645 1.33545 10.7867 2.23984C9.92976 3.21016 9.42614 4.40986 9.53425 5.7625C10.8104 5.86006 11.9759 5.20352 12.9356 4.08291Z" fill="black"/>
</svg>
