<svg width="131" height="20" viewBox="0 0 131 20" fill="none" xmlns="http://www.w3.org/2000/svg">
<path fill-rule="evenodd" clip-rule="evenodd" d="M63.9085 0V16H65.9708V0H70V20H51.1398V13.9399C51.5274 14.593 52.0086 15.115 52.5834 15.506C53.3396 16.0087 54.2075 16.26 55.1871 16.26C56.2698 16.26 57.2494 16.0087 58.1259 15.506C59.0196 15.0033 59.7328 14.284 60.2656 13.348C60.7983 12.412 61.0647 11.3027 61.0647 10.02C61.0647 8.72 60.7983 7.61067 60.2656 6.692C59.7328 5.756 59.0196 5.03667 58.1259 4.534C57.2494 4.03134 56.2698 3.78 55.1871 3.78C54.2075 3.78 53.3396 4.03134 52.5834 4.534C52.0086 4.92497 51.5274 5.44701 51.1398 6.10011V4.04001H49.0775V20H20.1658L27.1472 4.04001H24.8271L21.5675 12.2818L18.2534 4.04001H15.8044L20.3415 14.31L17.8473 20H0V0H63.9085ZM44.8684 5.938C45.1778 6.63133 45.3325 7.472 45.3325 8.46001V16H43.2701V8.72C43.2701 7.69733 43.0811 6.94333 42.703 6.45801C42.3421 5.97267 41.775 5.73 41.0016 5.73C40.4345 5.73 39.9446 5.85133 39.5322 6.09399C39.1197 6.31934 38.8018 6.65733 38.5784 7.108C38.3549 7.55867 38.2432 8.09601 38.2432 8.72V16H36.1809V8.72C36.1809 7.69733 35.9918 6.94333 35.6138 6.45801C35.2529 5.97267 34.6857 5.73 33.9123 5.73C33.3452 5.73 32.8554 5.85133 32.4429 6.09399C32.0305 6.31934 31.7125 6.65733 31.4891 7.108C31.2657 7.55867 31.154 8.09601 31.154 8.72V16H29.0917V4.04001H31.154V5.782C31.5149 5.106 31.9617 4.60333 32.4945 4.274C33.0444 3.94467 33.6889 3.78 34.4279 3.78C35.2529 3.78 35.9575 3.97934 36.5418 4.37801C37.1433 4.75934 37.5816 5.30533 37.8565 6.01601C38.269 5.27068 38.7846 4.716 39.4033 4.35201C40.022 3.97067 40.7266 3.78 41.5172 3.78C42.3249 3.78 43.0123 3.96201 43.5795 4.326C44.1466 4.69 44.5763 5.22734 44.8684 5.938ZM11.3031 5.99001L3.9561 16H14.5255V14.05H7.69406L15.0411 4.04001H4.72947V5.99001H11.3031Z" fill="#494949"/>
<path d="M51.7069 12.36C51.3288 11.7187 51.1398 10.9387 51.1398 10.02C51.1398 9.10133 51.3288 8.32134 51.7069 7.68001C52.085 7.03867 52.5662 6.55333 53.1506 6.224C53.7349 5.89467 54.3278 5.73 54.9293 5.73C55.6683 5.73 56.3386 5.89467 56.9401 6.224C57.5588 6.55333 58.0486 7.03867 58.4095 7.68001C58.7876 8.32134 58.9766 9.10133 58.9766 10.02C58.9766 10.9387 58.7876 11.7187 58.4095 12.36C58.0486 13.0013 57.5588 13.4867 56.9401 13.816C56.3386 14.1453 55.6683 14.31 54.9293 14.31C54.3278 14.31 53.7349 14.1453 53.1506 13.816C52.5662 13.4867 52.085 13.0013 51.7069 12.36Z" fill="#494949"/>
<path d="M80.22 16.2C79.3667 16.2 78.6267 16.0667 78 15.8C77.3867 15.52 76.9133 15.0933 76.58 14.52C76.2467 13.9333 76.08 13.18 76.08 12.26V8.42H74.52C74.3733 8.42 74.2467 8.37333 74.14 8.28C74.0467 8.18667 74 8.06667 74 7.92V6.3C74 6.15333 74.0467 6.03333 74.14 5.94C74.2467 5.84667 74.3733 5.8 74.52 5.8H76.08V2.5C76.08 2.35333 76.1267 2.23333 76.22 2.14C76.3267 2.04667 76.4467 2 76.58 2H78.9C79.0467 2 79.1667 2.04667 79.26 2.14C79.3533 2.23333 79.4 2.35333 79.4 2.5V5.8H81.9C82.0467 5.8 82.1667 5.84667 82.26 5.94C82.3533 6.03333 82.4 6.15333 82.4 6.3V7.92C82.4 8.06667 82.3533 8.18667 82.26 8.28C82.1667 8.37333 82.0467 8.42 81.9 8.42H79.4V11.98C79.4 12.4333 79.4867 12.7933 79.66 13.06C79.8333 13.3267 80.1267 13.46 80.54 13.46H82.08C82.2267 13.46 82.3467 13.5067 82.44 13.6C82.5333 13.6933 82.58 13.8133 82.58 13.96V15.7C82.58 15.8467 82.5333 15.9667 82.44 16.06C82.3467 16.1533 82.2267 16.2 82.08 16.2H80.22Z" fill="#28292B"/>
<path d="M89.1559 16.4C88.0359 16.4 87.0893 16.22 86.3159 15.86C85.5559 15.5 84.9693 14.9867 84.5559 14.32C84.1559 13.64 83.9293 12.8333 83.8759 11.9C83.8626 11.6333 83.8559 11.3333 83.8559 11C83.8559 10.6533 83.8626 10.3533 83.8759 10.1C83.9293 9.15333 84.1693 8.34667 84.5959 7.68C85.0226 7.01333 85.6159 6.5 86.3759 6.14C87.1493 5.78 88.0759 5.6 89.1559 5.6C90.2493 5.6 91.1759 5.78 91.9359 6.14C92.7093 6.5 93.3093 7.01333 93.7359 7.68C94.1626 8.34667 94.4026 9.15333 94.4559 10.1C94.4693 10.3533 94.4759 10.6533 94.4759 11C94.4759 11.3333 94.4693 11.6333 94.4559 11.9C94.4026 12.8333 94.1693 13.64 93.7559 14.32C93.3559 14.9867 92.7693 15.5 91.9959 15.86C91.2359 16.22 90.2893 16.4 89.1559 16.4ZM89.1559 13.96C89.7559 13.96 90.1893 13.78 90.4559 13.42C90.7359 13.06 90.8959 12.52 90.9359 11.8C90.9493 11.6 90.9559 11.3333 90.9559 11C90.9559 10.6667 90.9493 10.4 90.9359 10.2C90.8959 9.49333 90.7359 8.96 90.4559 8.6C90.1893 8.22667 89.7559 8.04 89.1559 8.04C88.5693 8.04 88.1359 8.22667 87.8559 8.6C87.5759 8.96 87.4226 9.49333 87.3959 10.2C87.3826 10.4 87.3759 10.6667 87.3759 11C87.3759 11.3333 87.3826 11.6 87.3959 11.8C87.4226 12.52 87.5759 13.06 87.8559 13.42C88.1359 13.78 88.5693 13.96 89.1559 13.96Z" fill="#28292B"/>
<path d="M100.323 16.4C99.683 16.4 99.103 16.3 98.583 16.1C98.0763 15.8867 97.6363 15.58 97.263 15.18C96.903 14.7667 96.623 14.2733 96.423 13.7C96.223 13.1133 96.1096 12.4467 96.083 11.7C96.0696 11.4333 96.063 11.2 96.063 11C96.063 10.7867 96.0696 10.5533 96.083 10.3C96.1096 9.58 96.223 8.93333 96.423 8.36C96.623 7.78667 96.903 7.29333 97.263 6.88C97.623 6.46667 98.063 6.15333 98.583 5.94C99.103 5.71333 99.683 5.6 100.323 5.6C100.99 5.6 101.563 5.71333 102.043 5.94C102.523 6.15333 102.93 6.43333 103.263 6.78V2.5C103.263 2.35333 103.31 2.23333 103.403 2.14C103.496 2.04667 103.616 2 103.763 2H106.203C106.336 2 106.45 2.04667 106.543 2.14C106.65 2.23333 106.703 2.35333 106.703 2.5V15.7C106.703 15.8467 106.65 15.9667 106.543 16.06C106.45 16.1533 106.336 16.2 106.203 16.2H103.943C103.796 16.2 103.676 16.1533 103.583 16.06C103.49 15.9667 103.443 15.8467 103.443 15.7V15.06C103.123 15.4467 102.71 15.7667 102.203 16.02C101.696 16.2733 101.07 16.4 100.323 16.4ZM101.403 13.72C101.856 13.72 102.21 13.6267 102.463 13.44C102.73 13.24 102.923 12.9867 103.043 12.68C103.176 12.3733 103.25 12.04 103.263 11.68C103.276 11.4133 103.283 11.16 103.283 10.92C103.283 10.68 103.276 10.4333 103.263 10.18C103.25 9.84667 103.176 9.54 103.043 9.26C102.91 8.96667 102.71 8.73333 102.443 8.56C102.176 8.37333 101.83 8.28 101.403 8.28C100.963 8.28 100.61 8.37333 100.343 8.56C100.09 8.74667 99.9096 9 99.803 9.32C99.6963 9.64 99.6296 9.99333 99.603 10.38C99.563 10.7933 99.563 11.2067 99.603 11.62C99.6296 12.0067 99.6963 12.36 99.803 12.68C99.9096 13 100.09 13.2533 100.343 13.44C100.61 13.6267 100.963 13.72 101.403 13.72Z" fill="#28292B"/>
<path d="M112.18 16.4C111.46 16.4 110.813 16.2667 110.24 16C109.68 15.72 109.233 15.3467 108.9 14.88C108.567 14.4133 108.4 13.8867 108.4 13.3C108.4 12.3533 108.787 11.6067 109.56 11.06C110.333 10.5 111.36 10.12 112.64 9.92L115.14 9.54V9.26C115.14 8.78 115.04 8.41333 114.84 8.16C114.64 7.90667 114.273 7.78 113.74 7.78C113.367 7.78 113.06 7.85333 112.82 8C112.593 8.14667 112.413 8.34667 112.28 8.6C112.16 8.77333 111.993 8.86 111.78 8.86H109.54C109.393 8.86 109.28 8.82 109.2 8.74C109.12 8.64667 109.087 8.54 109.1 8.42C109.1 8.18 109.187 7.90667 109.36 7.6C109.547 7.28 109.827 6.96667 110.2 6.66C110.573 6.35333 111.053 6.1 111.64 5.9C112.227 5.7 112.933 5.6 113.76 5.6C114.627 5.6 115.367 5.7 115.98 5.9C116.593 6.1 117.087 6.38 117.46 6.74C117.847 7.1 118.133 7.52667 118.32 8.02C118.507 8.5 118.6 9.03333 118.6 9.62V15.7C118.6 15.8467 118.547 15.9667 118.44 16.06C118.347 16.1533 118.233 16.2 118.1 16.2H115.78C115.633 16.2 115.513 16.1533 115.42 16.06C115.327 15.9667 115.28 15.8467 115.28 15.7V15C115.107 15.2533 114.873 15.4867 114.58 15.7C114.287 15.9133 113.94 16.08 113.54 16.2C113.153 16.3333 112.7 16.4 112.18 16.4ZM113.12 14.12C113.507 14.12 113.853 14.04 114.16 13.88C114.48 13.7067 114.727 13.4467 114.9 13.1C115.087 12.74 115.18 12.2933 115.18 11.76V11.48L113.48 11.78C112.853 11.8867 112.393 12.0533 112.1 12.28C111.82 12.4933 111.68 12.7467 111.68 13.04C111.68 13.2667 111.747 13.46 111.88 13.62C112.013 13.78 112.187 13.9067 112.4 14C112.613 14.08 112.853 14.12 113.12 14.12Z" fill="#28292B"/>
<path d="M122.465 20C122.345 20 122.245 19.96 122.165 19.88C122.085 19.8 122.045 19.7 122.045 19.58C122.045 19.5533 122.045 19.5133 122.045 19.46C122.058 19.42 122.078 19.3733 122.105 19.32L123.665 15.56L119.825 6.48C119.785 6.38667 119.765 6.30667 119.765 6.24C119.792 6.12 119.845 6.02 119.925 5.94C120.005 5.84667 120.105 5.8 120.225 5.8H122.505C122.678 5.8 122.805 5.84667 122.885 5.94C122.978 6.02 123.038 6.11333 123.065 6.22L125.365 12.04L127.705 6.22C127.758 6.11333 127.825 6.02 127.905 5.94C127.998 5.84667 128.132 5.8 128.305 5.8H130.545C130.665 5.8 130.765 5.84667 130.845 5.94C130.938 6.02 130.985 6.11333 130.985 6.22C130.985 6.28667 130.965 6.37333 130.925 6.48L125.265 19.58C125.225 19.6867 125.158 19.78 125.065 19.86C124.972 19.9533 124.838 20 124.665 20H122.465Z" fill="#28292B"/>
</svg>
